<svg xmlns="http://www.w3.org/2000/svg" viewBox="0 0 400 300" preserveAspectRatio="xMidYMid slice">
  <rect width="400" height="300" fill="#e4dccf"/>
  <rect y="70" width="400" height="230" fill="#cdb896"/>
  <rect y="70" width="400" height="8" fill="#b6a07d"/>
  <g fill="#a98f6b">
    <path d="M52 150a28 28 0 0 1 56 0v100H52z"/>
    <path d="M172 150a28 28 0 0 1 56 0v100h-56z"/>
    <path d="M292 150a28 28 0 0 1 56 0v100h-56z"/>
  </g>
  <g fill="#f2dcab">
    <path d="M60 154a20 20 0 0 1 40 0v88H60z"/>
    <path d="M180 154a20 20 0 0 1 40 0v88h-40z"/>
    <path d="M300 154a20 20 0 0 1 40 0v88h-40z"/>
  </g>
  <g fill="#a98f6b">
    <rect x="78" y="150" width="4" height="92"/>
    <rect x="198" y="150" width="4" height="92"/>
    <rect x="318" y="150" width="4" height="92"/>
  </g>
  <rect y="284" width="400" height="16" fill="#b6a07d"/>
</svg>
